<?xml version="1.0" standalone="no"?><svg xmlns="http://www.w3.org/2000/svg" viewBox="0 0 1440 320"><path fill="#0099ff" fill-opacity="0.3" d="M0,128L34.3,133.3C68.6,139,137,149,206,133.3C274.3,117,343,75,411,90.7C480,107,549,181,617,218.7C685.7,256,754,256,823,245.3C891.4,235,960,213,1029,224C1097.1,235,1166,277,1234,261.3C1302.9,245,1371,171,1406,133.3L1440,96L1440,320L1405.7,320C1371.4,320,1303,320,1234,320C1165.7,320,1097,320,1029,320C960,320,891,320,823,320C754.3,320,686,320,617,320C548.6,320,480,320,411,320C342.9,320,274,320,206,320C137.1,320,69,320,34,320L0,320Z"></path></svg>